<?xml version="1.0" encoding="utf-8" standalone="no"?>
<!DOCTYPE svg PUBLIC "-//W3C//DTD SVG 1.1//EN"
  "http://www.w3.org/Graphics/SVG/1.1/DTD/svg11.dtd">
<svg xmlns:xlink="http://www.w3.org/1999/xlink" width="460.8pt" height="345.6pt" viewBox="0 0 460.8 345.6" xmlns="http://www.w3.org/2000/svg" version="1.1">
 <metadata>
  <rdf:RDF xmlns:dc="http://purl.org/dc/elements/1.1/" xmlns:cc="http://creativecommons.org/ns#" xmlns:rdf="http://www.w3.org/1999/02/22-rdf-syntax-ns#">
   <cc:Work>
    <dc:type rdf:resource="http://purl.org/dc/dcmitype/StillImage"/>
    <dc:date>2024-08-19T16:02:41.295204</dc:date>
    <dc:format>image/svg+xml</dc:format>
    <dc:creator>
     <cc:Agent>
      <dc:title>Matplotlib v3.9.1, https://matplotlib.org/</dc:title>
     </cc:Agent>
    </dc:creator>
   </cc:Work>
  </rdf:RDF>
 </metadata>
 <defs>
  <style type="text/css">*{stroke-linejoin: round; stroke-linecap: butt}</style>
 </defs>
 <g id="figure_1">
  <g id="patch_1">
   <path d="M 0 345.6 
L 460.8 345.6 
L 460.8 0 
L 0 0 
z
" style="fill: #ffffff"/>
  </g>
  <g id="patch_2">
   <path d="M 103.104 307.584 
L 369.216 307.584 
L 369.216 41.472 
L 103.104 41.472 
z
" style="fill: #ffffff"/>
  </g>
  <g id="pane3d_1">
   <g id="patch_3">
    <path d="M 123.197291 241.969309 
L 211.076164 168.307495 
L 209.854564 62.073991 
L 117.770234 129.272941 
" style="fill: #f2f2f2; opacity: 0.5; stroke: #f2f2f2; stroke-linejoin: miter"/>
   </g>
  </g>
  <g id="pane3d_2">
   <g id="patch_4">
    <path d="M 211.076164 168.307495 
L 352.090401 209.294766 
L 357.122702 99.402171 
L 209.854564 62.073991 
" style="fill: #e6e6e6; opacity: 0.5; stroke: #e6e6e6; stroke-linejoin: miter"/>
   </g>
  </g>
  <g id="pane3d_3">
   <g id="patch_5">
    <path d="M 123.197291 241.969309 
L 272.679269 290.790123 
L 352.090401 209.294766 
L 211.076164 168.307495 
" style="fill: #ececec; opacity: 0.5; stroke: #ececec; stroke-linejoin: miter"/>
   </g>
  </g>
  <g id="grid3d_1">
   <g id="Line3DCollection_1">
    <path d="M 150.161268 250.775744 
L 236.604882 175.727685 
L 236.469403 68.820077 
" style="fill: none; stroke: #b0b0b0; stroke-width: 0.8"/>
    <path d="M 195.967881 265.736184 
L 279.880048 188.306068 
L 281.632185 80.267526 
" style="fill: none; stroke: #b0b0b0; stroke-width: 0.8"/>
    <path d="M 243.305231 281.196562 
L 324.47849 201.269074 
L 328.237231 92.080546 
" style="fill: none; stroke: #b0b0b0; stroke-width: 0.8"/>
   </g>
  </g>
  <g id="grid3d_2">
   <g id="Line3DCollection_2">
    <path d="M 131.324393 119.381733 
L 136.090606 231.161877 
L 284.374184 278.788263 
" style="fill: none; stroke: #b0b0b0; stroke-width: 0.8"/>
    <path d="M 148.876543 106.572973 
L 152.808389 217.1487 
L 299.515518 263.249529 
" style="fill: none; stroke: #b0b0b0; stroke-width: 0.8"/>
    <path d="M 165.860779 94.178651 
L 169.008295 203.569617 
L 314.163547 248.217048 
" style="fill: none; stroke: #b0b0b0; stroke-width: 0.8"/>
    <path d="M 182.304226 82.178973 
L 184.71402 190.404767 
L 328.341992 233.666476 
" style="fill: none; stroke: #b0b0b0; stroke-width: 0.8"/>
    <path d="M 198.232306 70.555385 
L 199.947838 177.635479 
L 342.073078 219.575004 
" style="fill: none; stroke: #b0b0b0; stroke-width: 0.8"/>
   </g>
  </g>
  <g id="grid3d_3">
   <g id="Line3DCollection_3">
    <path d="M 352.186814 207.189346 
L 211.052711 166.26796 
L 123.093487 239.813739 
" style="fill: none; stroke: #b0b0b0; stroke-width: 0.8"/>
    <path d="M 353.15013 186.152988 
L 210.818484 145.898963 
L 122.055952 218.26867 
" style="fill: none; stroke: #b0b0b0; stroke-width: 0.8"/>
    <path d="M 354.130096 164.753032 
L 210.580403 125.194799 
L 120.999798 196.336942 
" style="fill: none; stroke: #b0b0b0; stroke-width: 0.8"/>
    <path d="M 355.127148 142.979969 
L 210.338371 104.147126 
L 119.924518 174.008052 
" style="fill: none; stroke: #b0b0b0; stroke-width: 0.8"/>
    <path d="M 356.141736 120.823956 
L 210.092291 82.747323 
L 118.829588 151.271113 
" style="fill: none; stroke: #b0b0b0; stroke-width: 0.8"/>
   </g>
  </g>
  <g id="axis3d_1">
   <g id="line2d_1">
    <path d="M 123.197291 241.969309 
L 272.679269 290.790123 
" style="fill: none; stroke: #000000; stroke-width: 0.8; stroke-linecap: square"/>
   </g>
   <g id="xtick_1">
    <g id="line2d_2">
     <path d="M 150.91441 250.121886 
L 148.651732 252.086283 
" style="fill: none; stroke: #000000; stroke-width: 0.8; stroke-linecap: square"/>
    </g>
    <g id="text_1">
     <!-- Task 1 -->
     <g transform="translate(127.087073 274.208765) scale(0.1 -0.1)">
      <defs>
       <path id="DejaVuSans-54" d="M -19 4666 
L 3928 4666 
L 3928 4134 
L 2272 4134 
L 2272 0 
L 1638 0 
L 1638 4134 
L -19 4134 
L -19 4666 
z
" transform="scale(0.015625)"/>
       <path id="DejaVuSans-61" d="M 2194 1759 
Q 1497 1759 1228 1600 
Q 959 1441 959 1056 
Q 959 750 1161 570 
Q 1363 391 1709 391 
Q 2188 391 2477 730 
Q 2766 1069 2766 1631 
L 2766 1759 
L 2194 1759 
z
M 3341 1997 
L 3341 0 
L 2766 0 
L 2766 531 
Q 2569 213 2275 61 
Q 1981 -91 1556 -91 
Q 1019 -91 701 211 
Q 384 513 384 1019 
Q 384 1609 779 1909 
Q 1175 2209 1959 2209 
L 2766 2209 
L 2766 2266 
Q 2766 2663 2505 2880 
Q 2244 3097 1772 3097 
Q 1472 3097 1187 3025 
Q 903 2953 641 2809 
L 641 3341 
Q 956 3463 1253 3523 
Q 1550 3584 1831 3584 
Q 2591 3584 2966 3190 
Q 3341 2797 3341 1997 
z
" transform="scale(0.015625)"/>
       <path id="DejaVuSans-73" d="M 2834 3397 
L 2834 2853 
Q 2591 2978 2328 3040 
Q 2066 3103 1784 3103 
Q 1356 3103 1142 2972 
Q 928 2841 928 2578 
Q 928 2378 1081 2264 
Q 1234 2150 1697 2047 
L 1894 2003 
Q 2506 1872 2764 1633 
Q 3022 1394 3022 966 
Q 3022 478 2636 193 
Q 2250 -91 1575 -91 
Q 1294 -91 989 -36 
Q 684 19 347 128 
L 347 722 
Q 666 556 975 473 
Q 1284 391 1588 391 
Q 1994 391 2212 530 
Q 2431 669 2431 922 
Q 2431 1156 2273 1281 
Q 2116 1406 1581 1522 
L 1381 1569 
Q 847 1681 609 1914 
Q 372 2147 372 2553 
Q 372 3047 722 3315 
Q 1072 3584 1716 3584 
Q 2034 3584 2315 3537 
Q 2597 3491 2834 3397 
z
" transform="scale(0.015625)"/>
       <path id="DejaVuSans-6b" d="M 581 4863 
L 1159 4863 
L 1159 1991 
L 2875 3500 
L 3609 3500 
L 1753 1863 
L 3688 0 
L 2938 0 
L 1159 1709 
L 1159 0 
L 581 0 
L 581 4863 
z
" transform="scale(0.015625)"/>
       <path id="DejaVuSans-20" transform="scale(0.015625)"/>
       <path id="DejaVuSans-31" d="M 794 531 
L 1825 531 
L 1825 4091 
L 703 3866 
L 703 4441 
L 1819 4666 
L 2450 4666 
L 2450 531 
L 3481 531 
L 3481 0 
L 794 0 
L 794 531 
z
" transform="scale(0.015625)"/>
      </defs>
      <use xlink:href="#DejaVuSans-54"/>
      <use xlink:href="#DejaVuSans-61" x="44.583984"/>
      <use xlink:href="#DejaVuSans-73" x="105.863281"/>
      <use xlink:href="#DejaVuSans-6b" x="157.962891"/>
      <use xlink:href="#DejaVuSans-20" x="215.873047"/>
      <use xlink:href="#DejaVuSans-31" x="247.660156"/>
     </g>
    </g>
   </g>
   <g id="xtick_2">
    <g id="line2d_3">
     <path d="M 196.69995 265.060666 
L 194.500531 267.090184 
" style="fill: none; stroke: #000000; stroke-width: 0.8; stroke-linecap: square"/>
    </g>
    <g id="text_2">
     <!-- Task 2 -->
     <g transform="translate(172.943989 289.487318) scale(0.1 -0.1)">
      <defs>
       <path id="DejaVuSans-32" d="M 1228 531 
L 3431 531 
L 3431 0 
L 469 0 
L 469 531 
Q 828 903 1448 1529 
Q 2069 2156 2228 2338 
Q 2531 2678 2651 2914 
Q 2772 3150 2772 3378 
Q 2772 3750 2511 3984 
Q 2250 4219 1831 4219 
Q 1534 4219 1204 4116 
Q 875 4013 500 3803 
L 500 4441 
Q 881 4594 1212 4672 
Q 1544 4750 1819 4750 
Q 2544 4750 2975 4387 
Q 3406 4025 3406 3419 
Q 3406 3131 3298 2873 
Q 3191 2616 2906 2266 
Q 2828 2175 2409 1742 
Q 1991 1309 1228 531 
z
" transform="scale(0.015625)"/>
      </defs>
      <use xlink:href="#DejaVuSans-54"/>
      <use xlink:href="#DejaVuSans-61" x="44.583984"/>
      <use xlink:href="#DejaVuSans-73" x="105.863281"/>
      <use xlink:href="#DejaVuSans-6b" x="157.962891"/>
      <use xlink:href="#DejaVuSans-20" x="215.873047"/>
      <use xlink:href="#DejaVuSans-32" x="247.660156"/>
     </g>
    </g>
   </g>
   <g id="xtick_3">
    <g id="line2d_4">
     <path d="M 244.014386 280.498291 
L 241.883756 282.596222 
" style="fill: none; stroke: #000000; stroke-width: 0.8; stroke-linecap: square"/>
    </g>
    <g id="text_3">
     <!-- Task 3 -->
     <g transform="translate(220.339249 305.278414) scale(0.1 -0.1)">
      <defs>
       <path id="DejaVuSans-33" d="M 2597 2516 
Q 3050 2419 3304 2112 
Q 3559 1806 3559 1356 
Q 3559 666 3084 287 
Q 2609 -91 1734 -91 
Q 1441 -91 1130 -33 
Q 819 25 488 141 
L 488 750 
Q 750 597 1062 519 
Q 1375 441 1716 441 
Q 2309 441 2620 675 
Q 2931 909 2931 1356 
Q 2931 1769 2642 2001 
Q 2353 2234 1838 2234 
L 1294 2234 
L 1294 2753 
L 1863 2753 
Q 2328 2753 2575 2939 
Q 2822 3125 2822 3475 
Q 2822 3834 2567 4026 
Q 2313 4219 1838 4219 
Q 1578 4219 1281 4162 
Q 984 4106 628 3988 
L 628 4550 
Q 988 4650 1302 4700 
Q 1616 4750 1894 4750 
Q 2613 4750 3031 4423 
Q 3450 4097 3450 3541 
Q 3450 3153 3228 2886 
Q 3006 2619 2597 2516 
z
" transform="scale(0.015625)"/>
      </defs>
      <use xlink:href="#DejaVuSans-54"/>
      <use xlink:href="#DejaVuSans-61" x="44.583984"/>
      <use xlink:href="#DejaVuSans-73" x="105.863281"/>
      <use xlink:href="#DejaVuSans-6b" x="157.962891"/>
      <use xlink:href="#DejaVuSans-20" x="215.873047"/>
      <use xlink:href="#DejaVuSans-33" x="247.660156"/>
     </g>
    </g>
   </g>
   <g id="text_4">
    <!-- Tasks -->
    <g transform="translate(166.084124 299.471783) rotate(-341.912962) scale(0.1 -0.1)">
     <use xlink:href="#DejaVuSans-54"/>
     <use xlink:href="#DejaVuSans-61" x="44.583984"/>
     <use xlink:href="#DejaVuSans-73" x="105.863281"/>
     <use xlink:href="#DejaVuSans-6b" x="157.962891"/>
     <use xlink:href="#DejaVuSans-73" x="215.873047"/>
    </g>
   </g>
  </g>
  <g id="axis3d_2">
   <g id="line2d_5">
    <path d="M 352.090401 209.294766 
L 272.679269 290.790123 
" style="fill: none; stroke: #000000; stroke-width: 0.8; stroke-linecap: square"/>
   </g>
   <g id="xtick_4">
    <g id="line2d_6">
     <path d="M 283.12502 278.387051 
L 286.87572 279.591718 
" style="fill: none; stroke: #000000; stroke-width: 0.8; stroke-linecap: square"/>
    </g>
    <g id="text_5">
     <!-- Dim 1 -->
     <g transform="translate(282.292009 299.715743) scale(0.1 -0.1)">
      <defs>
       <path id="DejaVuSans-44" d="M 1259 4147 
L 1259 519 
L 2022 519 
Q 2988 519 3436 956 
Q 3884 1394 3884 2338 
Q 3884 3275 3436 3711 
Q 2988 4147 2022 4147 
L 1259 4147 
z
M 628 4666 
L 1925 4666 
Q 3281 4666 3915 4102 
Q 4550 3538 4550 2338 
Q 4550 1131 3912 565 
Q 3275 0 1925 0 
L 628 0 
L 628 4666 
z
" transform="scale(0.015625)"/>
       <path id="DejaVuSans-69" d="M 603 3500 
L 1178 3500 
L 1178 0 
L 603 0 
L 603 3500 
z
M 603 4863 
L 1178 4863 
L 1178 4134 
L 603 4134 
L 603 4863 
z
" transform="scale(0.015625)"/>
       <path id="DejaVuSans-6d" d="M 3328 2828 
Q 3544 3216 3844 3400 
Q 4144 3584 4550 3584 
Q 5097 3584 5394 3201 
Q 5691 2819 5691 2113 
L 5691 0 
L 5113 0 
L 5113 2094 
Q 5113 2597 4934 2840 
Q 4756 3084 4391 3084 
Q 3944 3084 3684 2787 
Q 3425 2491 3425 1978 
L 3425 0 
L 2847 0 
L 2847 2094 
Q 2847 2600 2669 2842 
Q 2491 3084 2119 3084 
Q 1678 3084 1418 2786 
Q 1159 2488 1159 1978 
L 1159 0 
L 581 0 
L 581 3500 
L 1159 3500 
L 1159 2956 
Q 1356 3278 1631 3431 
Q 1906 3584 2284 3584 
Q 2666 3584 2933 3390 
Q 3200 3197 3328 2828 
z
" transform="scale(0.015625)"/>
      </defs>
      <use xlink:href="#DejaVuSans-44"/>
      <use xlink:href="#DejaVuSans-69" x="77.001953"/>
      <use xlink:href="#DejaVuSans-6d" x="104.785156"/>
      <use xlink:href="#DejaVuSans-20" x="202.197266"/>
      <use xlink:href="#DejaVuSans-31" x="233.984375"/>
     </g>
    </g>
   </g>
   <g id="xtick_5">
    <g id="line2d_7">
     <path d="M 298.280664 262.861493 
L 301.988344 264.026583 
" style="fill: none; stroke: #000000; stroke-width: 0.8; stroke-linecap: square"/>
    </g>
    <g id="text_6">
     <!-- Dim 2 -->
     <g transform="translate(297.230151 283.947066) scale(0.1 -0.1)">
      <use xlink:href="#DejaVuSans-44"/>
      <use xlink:href="#DejaVuSans-69" x="77.001953"/>
      <use xlink:href="#DejaVuSans-6d" x="104.785156"/>
      <use xlink:href="#DejaVuSans-20" x="202.197266"/>
      <use xlink:href="#DejaVuSans-32" x="233.984375"/>
     </g>
    </g>
   </g>
   <g id="xtick_6">
    <g id="line2d_8">
     <path d="M 312.942742 247.841548 
L 316.608191 248.968982 
" style="fill: none; stroke: #000000; stroke-width: 0.8; stroke-linecap: square"/>
    </g>
    <g id="text_7">
     <!-- Dim 3 -->
     <g transform="translate(311.681328 268.692429) scale(0.1 -0.1)">
      <use xlink:href="#DejaVuSans-44"/>
      <use xlink:href="#DejaVuSans-69" x="77.001953"/>
      <use xlink:href="#DejaVuSans-6d" x="104.785156"/>
      <use xlink:href="#DejaVuSans-20" x="202.197266"/>
      <use xlink:href="#DejaVuSans-33" x="233.984375"/>
     </g>
    </g>
   </g>
   <g id="xtick_7">
    <g id="line2d_9">
     <path d="M 327.134976 233.302914 
L 330.758975 234.394487 
" style="fill: none; stroke: #000000; stroke-width: 0.8; stroke-linecap: square"/>
    </g>
    <g id="text_8">
     <!-- Dim 4 -->
     <g transform="translate(325.66897 253.927098) scale(0.1 -0.1)">
      <defs>
       <path id="DejaVuSans-34" d="M 2419 4116 
L 825 1625 
L 2419 1625 
L 2419 4116 
z
M 2253 4666 
L 3047 4666 
L 3047 1625 
L 3713 1625 
L 3713 1100 
L 3047 1100 
L 3047 0 
L 2419 0 
L 2419 1100 
L 313 1100 
L 313 1709 
L 2253 4666 
z
" transform="scale(0.015625)"/>
      </defs>
      <use xlink:href="#DejaVuSans-44"/>
      <use xlink:href="#DejaVuSans-69" x="77.001953"/>
      <use xlink:href="#DejaVuSans-6d" x="104.785156"/>
      <use xlink:href="#DejaVuSans-20" x="202.197266"/>
      <use xlink:href="#DejaVuSans-34" x="233.984375"/>
     </g>
    </g>
   </g>
   <g id="xtick_8">
    <g id="line2d_10">
     <path d="M 340.879595 219.222821 
L 344.462915 220.280217 
" style="fill: none; stroke: #000000; stroke-width: 0.8; stroke-linecap: square"/>
    </g>
    <g id="text_9">
     <!-- Dim 5 -->
     <g transform="translate(339.215026 239.627904) scale(0.1 -0.1)">
      <defs>
       <path id="DejaVuSans-35" d="M 691 4666 
L 3169 4666 
L 3169 4134 
L 1269 4134 
L 1269 2991 
Q 1406 3038 1543 3061 
Q 1681 3084 1819 3084 
Q 2600 3084 3056 2656 
Q 3513 2228 3513 1497 
Q 3513 744 3044 326 
Q 2575 -91 1722 -91 
Q 1428 -91 1123 -41 
Q 819 9 494 109 
L 494 744 
Q 775 591 1075 516 
Q 1375 441 1709 441 
Q 2250 441 2565 725 
Q 2881 1009 2881 1497 
Q 2881 1984 2565 2268 
Q 2250 2553 1709 2553 
Q 1456 2553 1204 2497 
Q 953 2441 691 2322 
L 691 4666 
z
" transform="scale(0.015625)"/>
      </defs>
      <use xlink:href="#DejaVuSans-44"/>
      <use xlink:href="#DejaVuSans-69" x="77.001953"/>
      <use xlink:href="#DejaVuSans-6d" x="104.785156"/>
      <use xlink:href="#DejaVuSans-20" x="202.197266"/>
      <use xlink:href="#DejaVuSans-35" x="233.984375"/>
     </g>
    </g>
   </g>
   <g id="text_10">
    <!-- Dimensions -->
    <g transform="translate(322.743787 299.054842) rotate(-45.742112) scale(0.1 -0.1)">
     <defs>
      <path id="DejaVuSans-65" d="M 3597 1894 
L 3597 1613 
L 953 1613 
Q 991 1019 1311 708 
Q 1631 397 2203 397 
Q 2534 397 2845 478 
Q 3156 559 3463 722 
L 3463 178 
Q 3153 47 2828 -22 
Q 2503 -91 2169 -91 
Q 1331 -91 842 396 
Q 353 884 353 1716 
Q 353 2575 817 3079 
Q 1281 3584 2069 3584 
Q 2775 3584 3186 3129 
Q 3597 2675 3597 1894 
z
M 3022 2063 
Q 3016 2534 2758 2815 
Q 2500 3097 2075 3097 
Q 1594 3097 1305 2825 
Q 1016 2553 972 2059 
L 3022 2063 
z
" transform="scale(0.015625)"/>
      <path id="DejaVuSans-6e" d="M 3513 2113 
L 3513 0 
L 2938 0 
L 2938 2094 
Q 2938 2591 2744 2837 
Q 2550 3084 2163 3084 
Q 1697 3084 1428 2787 
Q 1159 2491 1159 1978 
L 1159 0 
L 581 0 
L 581 3500 
L 1159 3500 
L 1159 2956 
Q 1366 3272 1645 3428 
Q 1925 3584 2291 3584 
Q 2894 3584 3203 3211 
Q 3513 2838 3513 2113 
z
" transform="scale(0.015625)"/>
      <path id="DejaVuSans-6f" d="M 1959 3097 
Q 1497 3097 1228 2736 
Q 959 2375 959 1747 
Q 959 1119 1226 758 
Q 1494 397 1959 397 
Q 2419 397 2687 759 
Q 2956 1122 2956 1747 
Q 2956 2369 2687 2733 
Q 2419 3097 1959 3097 
z
M 1959 3584 
Q 2709 3584 3137 3096 
Q 3566 2609 3566 1747 
Q 3566 888 3137 398 
Q 2709 -91 1959 -91 
Q 1206 -91 779 398 
Q 353 888 353 1747 
Q 353 2609 779 3096 
Q 1206 3584 1959 3584 
z
" transform="scale(0.015625)"/>
     </defs>
     <use xlink:href="#DejaVuSans-44"/>
     <use xlink:href="#DejaVuSans-69" x="77.001953"/>
     <use xlink:href="#DejaVuSans-6d" x="104.785156"/>
     <use xlink:href="#DejaVuSans-65" x="202.197266"/>
     <use xlink:href="#DejaVuSans-6e" x="263.720703"/>
     <use xlink:href="#DejaVuSans-73" x="327.099609"/>
     <use xlink:href="#DejaVuSans-69" x="379.199219"/>
     <use xlink:href="#DejaVuSans-6f" x="406.982422"/>
     <use xlink:href="#DejaVuSans-6e" x="468.164062"/>
     <use xlink:href="#DejaVuSans-73" x="531.542969"/>
    </g>
   </g>
  </g>
  <g id="axis3d_3">
   <g id="line2d_11">
    <path d="M 352.090401 209.294766 
L 357.122702 99.402171 
" style="fill: none; stroke: #000000; stroke-width: 0.8; stroke-linecap: square"/>
   </g>
   <g id="xtick_9">
    <g id="line2d_12">
     <path d="M 351.002262 206.845889 
L 354.558736 207.877077 
" style="fill: none; stroke: #000000; stroke-width: 0.8; stroke-linecap: square"/>
    </g>
    <g id="text_11">
     <!-- 0.0 -->
     <g transform="translate(362.499217 212.186875) scale(0.1 -0.1)">
      <defs>
       <path id="DejaVuSans-30" d="M 2034 4250 
Q 1547 4250 1301 3770 
Q 1056 3291 1056 2328 
Q 1056 1369 1301 889 
Q 1547 409 2034 409 
Q 2525 409 2770 889 
Q 3016 1369 3016 2328 
Q 3016 3291 2770 3770 
Q 2525 4250 2034 4250 
z
M 2034 4750 
Q 2819 4750 3233 4129 
Q 3647 3509 3647 2328 
Q 3647 1150 3233 529 
Q 2819 -91 2034 -91 
Q 1250 -91 836 529 
Q 422 1150 422 2328 
Q 422 3509 836 4129 
Q 1250 4750 2034 4750 
z
" transform="scale(0.015625)"/>
       <path id="DejaVuSans-2e" d="M 684 794 
L 1344 794 
L 1344 0 
L 684 0 
L 684 794 
z
" transform="scale(0.015625)"/>
      </defs>
      <use xlink:href="#DejaVuSans-30"/>
      <use xlink:href="#DejaVuSans-2e" x="63.623047"/>
      <use xlink:href="#DejaVuSans-30" x="95.410156"/>
     </g>
    </g>
   </g>
   <g id="xtick_10">
    <g id="line2d_13">
     <path d="M 351.955048 185.814997 
L 355.543162 186.829782 
" style="fill: none; stroke: #000000; stroke-width: 0.8; stroke-linecap: square"/>
    </g>
    <g id="text_12">
     <!-- 0.2 -->
     <g transform="translate(363.615631 191.191964) scale(0.1 -0.1)">
      <use xlink:href="#DejaVuSans-30"/>
      <use xlink:href="#DejaVuSans-2e" x="63.623047"/>
      <use xlink:href="#DejaVuSans-32" x="95.410156"/>
     </g>
    </g>
   </g>
   <g id="xtick_11">
    <g id="line2d_14">
     <path d="M 352.924295 164.420748 
L 356.544617 165.418406 
" style="fill: none; stroke: #000000; stroke-width: 0.8; stroke-linecap: square"/>
    </g>
    <g id="text_13">
     <!-- 0.4 -->
     <g transform="translate(364.751282 169.83528) scale(0.1 -0.1)">
      <use xlink:href="#DejaVuSans-30"/>
      <use xlink:href="#DejaVuSans-2e" x="63.623047"/>
      <use xlink:href="#DejaVuSans-34" x="95.410156"/>
     </g>
    </g>
   </g>
   <g id="xtick_12">
    <g id="line2d_15">
     <path d="M 353.910434 142.653643 
L 357.563546 143.63342 
" style="fill: none; stroke: #000000; stroke-width: 0.8; stroke-linecap: square"/>
    </g>
    <g id="text_14">
     <!-- 0.6 -->
     <g transform="translate(365.906673 148.10739) scale(0.1 -0.1)">
      <defs>
       <path id="DejaVuSans-36" d="M 2113 2584 
Q 1688 2584 1439 2293 
Q 1191 2003 1191 1497 
Q 1191 994 1439 701 
Q 1688 409 2113 409 
Q 2538 409 2786 701 
Q 3034 994 3034 1497 
Q 3034 2003 2786 2293 
Q 2538 2584 2113 2584 
z
M 3366 4563 
L 3366 3988 
Q 3128 4100 2886 4159 
Q 2644 4219 2406 4219 
Q 1781 4219 1451 3797 
Q 1122 3375 1075 2522 
Q 1259 2794 1537 2939 
Q 1816 3084 2150 3084 
Q 2853 3084 3261 2657 
Q 3669 2231 3669 1497 
Q 3669 778 3244 343 
Q 2819 -91 2113 -91 
Q 1303 -91 875 529 
Q 447 1150 447 2328 
Q 447 3434 972 4092 
Q 1497 4750 2381 4750 
Q 2619 4750 2861 4703 
Q 3103 4656 3366 4563 
z
" transform="scale(0.015625)"/>
      </defs>
      <use xlink:href="#DejaVuSans-30"/>
      <use xlink:href="#DejaVuSans-2e" x="63.623047"/>
      <use xlink:href="#DejaVuSans-36" x="95.410156"/>
     </g>
    </g>
   </g>
   <g id="xtick_13">
    <g id="line2d_16">
     <path d="M 354.913911 120.503849 
L 358.600411 121.464959 
" style="fill: none; stroke: #000000; stroke-width: 0.8; stroke-linecap: square"/>
    </g>
    <g id="text_15">
     <!-- 0.8 -->
     <g transform="translate(367.082322 125.998531) scale(0.1 -0.1)">
      <defs>
       <path id="DejaVuSans-38" d="M 2034 2216 
Q 1584 2216 1326 1975 
Q 1069 1734 1069 1313 
Q 1069 891 1326 650 
Q 1584 409 2034 409 
Q 2484 409 2743 651 
Q 3003 894 3003 1313 
Q 3003 1734 2745 1975 
Q 2488 2216 2034 2216 
z
M 1403 2484 
Q 997 2584 770 2862 
Q 544 3141 544 3541 
Q 544 4100 942 4425 
Q 1341 4750 2034 4750 
Q 2731 4750 3128 4425 
Q 3525 4100 3525 3541 
Q 3525 3141 3298 2862 
Q 3072 2584 2669 2484 
Q 3125 2378 3379 2068 
Q 3634 1759 3634 1313 
Q 3634 634 3220 271 
Q 2806 -91 2034 -91 
Q 1263 -91 848 271 
Q 434 634 434 1313 
Q 434 1759 690 2068 
Q 947 2378 1403 2484 
z
M 1172 3481 
Q 1172 3119 1398 2916 
Q 1625 2713 2034 2713 
Q 2441 2713 2670 2916 
Q 2900 3119 2900 3481 
Q 2900 3844 2670 4047 
Q 2441 4250 2034 4250 
Q 1625 4250 1398 4047 
Q 1172 3844 1172 3481 
z
" transform="scale(0.015625)"/>
      </defs>
      <use xlink:href="#DejaVuSans-30"/>
      <use xlink:href="#DejaVuSans-2e" x="63.623047"/>
      <use xlink:href="#DejaVuSans-38" x="95.410156"/>
     </g>
    </g>
   </g>
   <g id="text_16">
    <!-- Contribution -->
    <g transform="translate(396.263585 181.281163) rotate(-87.378092) scale(0.1 -0.1)">
     <defs>
      <path id="DejaVuSans-43" d="M 4122 4306 
L 4122 3641 
Q 3803 3938 3442 4084 
Q 3081 4231 2675 4231 
Q 1875 4231 1450 3742 
Q 1025 3253 1025 2328 
Q 1025 1406 1450 917 
Q 1875 428 2675 428 
Q 3081 428 3442 575 
Q 3803 722 4122 1019 
L 4122 359 
Q 3791 134 3420 21 
Q 3050 -91 2638 -91 
Q 1578 -91 968 557 
Q 359 1206 359 2328 
Q 359 3453 968 4101 
Q 1578 4750 2638 4750 
Q 3056 4750 3426 4639 
Q 3797 4528 4122 4306 
z
" transform="scale(0.015625)"/>
      <path id="DejaVuSans-74" d="M 1172 4494 
L 1172 3500 
L 2356 3500 
L 2356 3053 
L 1172 3053 
L 1172 1153 
Q 1172 725 1289 603 
Q 1406 481 1766 481 
L 2356 481 
L 2356 0 
L 1766 0 
Q 1100 0 847 248 
Q 594 497 594 1153 
L 594 3053 
L 172 3053 
L 172 3500 
L 594 3500 
L 594 4494 
L 1172 4494 
z
" transform="scale(0.015625)"/>
      <path id="DejaVuSans-72" d="M 2631 2963 
Q 2534 3019 2420 3045 
Q 2306 3072 2169 3072 
Q 1681 3072 1420 2755 
Q 1159 2438 1159 1844 
L 1159 0 
L 581 0 
L 581 3500 
L 1159 3500 
L 1159 2956 
Q 1341 3275 1631 3429 
Q 1922 3584 2338 3584 
Q 2397 3584 2469 3576 
Q 2541 3569 2628 3553 
L 2631 2963 
z
" transform="scale(0.015625)"/>
      <path id="DejaVuSans-62" d="M 3116 1747 
Q 3116 2381 2855 2742 
Q 2594 3103 2138 3103 
Q 1681 3103 1420 2742 
Q 1159 2381 1159 1747 
Q 1159 1113 1420 752 
Q 1681 391 2138 391 
Q 2594 391 2855 752 
Q 3116 1113 3116 1747 
z
M 1159 2969 
Q 1341 3281 1617 3432 
Q 1894 3584 2278 3584 
Q 2916 3584 3314 3078 
Q 3713 2572 3713 1747 
Q 3713 922 3314 415 
Q 2916 -91 2278 -91 
Q 1894 -91 1617 61 
Q 1341 213 1159 525 
L 1159 0 
L 581 0 
L 581 4863 
L 1159 4863 
L 1159 2969 
z
" transform="scale(0.015625)"/>
      <path id="DejaVuSans-75" d="M 544 1381 
L 544 3500 
L 1119 3500 
L 1119 1403 
Q 1119 906 1312 657 
Q 1506 409 1894 409 
Q 2359 409 2629 706 
Q 2900 1003 2900 1516 
L 2900 3500 
L 3475 3500 
L 3475 0 
L 2900 0 
L 2900 538 
Q 2691 219 2414 64 
Q 2138 -91 1772 -91 
Q 1169 -91 856 284 
Q 544 659 544 1381 
z
M 1991 3584 
L 1991 3584 
z
" transform="scale(0.015625)"/>
     </defs>
     <use xlink:href="#DejaVuSans-43"/>
     <use xlink:href="#DejaVuSans-6f" x="69.824219"/>
     <use xlink:href="#DejaVuSans-6e" x="131.005859"/>
     <use xlink:href="#DejaVuSans-74" x="194.384766"/>
     <use xlink:href="#DejaVuSans-72" x="233.59375"/>
     <use xlink:href="#DejaVuSans-69" x="274.707031"/>
     <use xlink:href="#DejaVuSans-62" x="302.490234"/>
     <use xlink:href="#DejaVuSans-75" x="365.966797"/>
     <use xlink:href="#DejaVuSans-74" x="429.345703"/>
     <use xlink:href="#DejaVuSans-69" x="468.554688"/>
     <use xlink:href="#DejaVuSans-6f" x="496.337891"/>
     <use xlink:href="#DejaVuSans-6e" x="557.519531"/>
    </g>
   </g>
  </g>
  <g id="axes_1">
   <g id="Poly3DCollection_1">
    <path d="M 202.551532 183.209922 
L 214.498549 173.102667 
L 248.75394 183.105009 
L 237.082513 193.45806 
z
" clip-path="url(#p50708164c0)" style="fill: #113f60"/>
    <path d="M 214.498549 173.102667 
L 214.133267 137.101865 
L 248.885655 146.811835 
L 248.75394 183.105009 
z
" clip-path="url(#p50708164c0)" style="fill: #0d324b"/>
    <path d="M 202.551532 183.209922 
L 202.006842 146.913698 
L 214.133267 137.101865 
L 214.498549 173.102667 
z
" clip-path="url(#p50708164c0)" style="fill: #1b699f"/>
    <path d="M 237.082513 193.45806 
L 248.75394 183.105009 
L 248.885655 146.811835 
L 237.042888 156.865816 
z
" clip-path="url(#p50708164c0)" style="fill: #0d324b"/>
    <path d="M 202.551532 183.209922 
L 237.082513 193.45806 
L 237.042888 156.865816 
L 202.006842 146.913698 
z
" clip-path="url(#p50708164c0)" style="fill: #1b699f"/>
    <path d="M 202.006842 146.913698 
L 237.042888 156.865816 
L 248.885655 146.811835 
L 214.133267 137.101865 
z
" clip-path="url(#p50708164c0)" style="fill: #185b8a"/>
    <path d="M 245.846878 196.059157 
L 257.446767 185.643256 
L 292.748152 195.951022 
L 281.445442 206.624135 
z
" clip-path="url(#p50708164c0)" style="fill: #113f60"/>
    <path d="M 187.20361 196.194365 
L 199.519322 185.775192 
L 234.119707 196.086195 
L 222.083635 206.762702 
z
" clip-path="url(#p50708164c0)" style="fill: #113f60"/>
    <path d="M 199.519322 185.775192 
L 198.404475 117.155287 
L 233.96158 126.89508 
L 234.119707 196.086195 
z
" clip-path="url(#p50708164c0)" style="fill: #0d324b"/>
    <path d="M 187.20361 196.194365 
L 185.729079 126.997292 
L 198.404475 117.155287 
L 199.519322 185.775192 
z
" clip-path="url(#p50708164c0)" style="fill: #1b699f"/>
    <path d="M 257.446767 185.643256 
L 257.969651 112.437921 
L 294.334115 122.134671 
L 292.748152 195.951022 
z
" clip-path="url(#p50708164c0)" style="fill: #0d324b"/>
    <path d="M 245.846878 196.059157 
L 246.029188 122.236433 
L 257.969651 112.437921 
L 257.446767 185.643256 
z
" clip-path="url(#p50708164c0)" style="fill: #1b699f"/>
    <path d="M 301.708448 198.567368 
L 301.817187 194.242865 
L 338.279241 204.835492 
L 338.104478 209.194763 
z
" clip-path="url(#p50708164c0)" style="fill: #0d324b"/>
    <path d="M 290.482873 209.306272 
L 290.573025 204.94664 
L 301.817187 194.242865 
L 301.708448 198.567368 
z
" clip-path="url(#p50708164c0)" style="fill: #1b699f"/>
    <path d="M 290.482873 209.306272 
L 301.708448 198.567368 
L 338.104478 209.194763 
L 327.199307 220.203012 
z
" clip-path="url(#p50708164c0)" style="fill: #113f60"/>
    <path d="M 230.938671 209.4457 
L 242.902095 198.70337 
L 278.575561 209.334154 
L 266.914181 220.345959 
z
" clip-path="url(#p50708164c0)" style="fill: #113f60"/>
    <path d="M 171.375357 209.585172 
L 184.077098 198.839414 
L 219.027538 209.47359 
L 206.609461 220.488952 
z
" clip-path="url(#p50708164c0)" style="fill: #113f60"/>
    <path d="M 184.077098 198.839414 
L 183.319767 165.330836 
L 218.742052 175.690635 
L 219.027538 209.47359 
z
" clip-path="url(#p50708164c0)" style="fill: #0d324b"/>
    <path d="M 171.375357 209.585172 
L 170.433455 175.799356 
L 183.319767 165.330836 
L 184.077098 198.839414 
z
" clip-path="url(#p50708164c0)" style="fill: #1b699f"/>
    <path d="M 290.573025 204.94664 
L 327.356664 215.808214 
L 338.279241 204.835492 
L 301.817187 194.242865 
z
" clip-path="url(#p50708164c0)" style="fill: #185b8a"/>
    <path d="M 242.902095 198.70337 
L 242.9695 145.9172 
L 279.417821 156.110618 
L 278.575561 209.334154 
z
" clip-path="url(#p50708164c0)" style="fill: #0d324b"/>
    <path d="M 230.938671 209.4457 
L 230.747336 156.217603 
L 242.9695 145.9172 
L 242.902095 198.70337 
z
" clip-path="url(#p50708164c0)" style="fill: #1b699f"/>
    <path d="M 222.083635 206.762702 
L 234.119707 196.086195 
L 233.96158 126.89508 
L 221.581479 136.987071 
z
" clip-path="url(#p50708164c0)" style="fill: #0d324b"/>
    <path d="M 187.20361 196.194365 
L 222.083635 206.762702 
L 221.581479 136.987071 
L 185.729079 126.997292 
z
" clip-path="url(#p50708164c0)" style="fill: #1b699f"/>
    <path d="M 281.445442 206.624135 
L 292.748152 195.951022 
L 294.334115 122.134671 
L 282.709172 132.182483 
z
" clip-path="url(#p50708164c0)" style="fill: #0d324b"/>
    <path d="M 245.846878 196.059157 
L 281.445442 206.624135 
L 282.709172 132.182483 
L 246.029188 122.236433 
z
" clip-path="url(#p50708164c0)" style="fill: #1b699f"/>
    <path d="M 327.199307 220.203012 
L 338.104478 209.194763 
L 338.279241 204.835492 
L 327.356664 215.808214 
z
" clip-path="url(#p50708164c0)" style="fill: #0d324b"/>
    <path d="M 290.482873 209.306272 
L 327.199307 220.203012 
L 327.356664 215.808214 
L 290.573025 204.94664 
z
" clip-path="url(#p50708164c0)" style="fill: #1b699f"/>
    <path d="M 185.729079 126.997292 
L 221.581479 136.987071 
L 233.96158 126.89508 
L 198.404475 117.155287 
z
" clip-path="url(#p50708164c0)" style="fill: #185b8a"/>
    <path d="M 206.609461 220.488952 
L 219.027538 209.47359 
L 218.742052 175.690635 
L 206.147079 186.425467 
z
" clip-path="url(#p50708164c0)" style="fill: #0d324b"/>
    <path d="M 171.375357 209.585172 
L 206.609461 220.488952 
L 206.147079 186.425467 
L 170.433455 175.799356 
z
" clip-path="url(#p50708164c0)" style="fill: #1b699f"/>
    <path d="M 170.433455 175.799356 
L 206.147079 186.425467 
L 218.742052 175.690635 
L 183.319767 165.330836 
z
" clip-path="url(#p50708164c0)" style="fill: #185b8a"/>
    <path d="M 246.029188 122.236433 
L 282.709172 132.182483 
L 294.334115 122.134671 
L 257.969651 112.437921 
z
" clip-path="url(#p50708164c0)" style="fill: #185b8a"/>
    <path d="M 276.04952 223.113885 
L 287.632441 212.033127 
L 324.429694 222.998803 
L 313.172946 234.361953 
z
" clip-path="url(#p50708164c0)" style="fill: #113f60"/>
    <path d="M 215.556556 223.257779 
L 227.900875 212.173431 
L 263.952505 223.14266 
L 251.915106 234.509538 
z
" clip-path="url(#p50708164c0)" style="fill: #113f60"/>
    <path d="M 155.043866 223.401721 
L 168.150076 212.31378 
L 203.455596 223.286564 
L 190.637035 234.657172 
z
" clip-path="url(#p50708164c0)" style="fill: #113f60"/>
    <path d="M 266.914181 220.345959 
L 278.575561 209.334154 
L 279.417821 156.110618 
L 267.511057 166.675088 
z
" clip-path="url(#p50708164c0)" style="fill: #0d324b"/>
    <path d="M 230.938671 209.4457 
L 266.914181 220.345959 
L 267.511057 166.675088 
L 230.747336 156.217603 
z
" clip-path="url(#p50708164c0)" style="fill: #1b699f"/>
    <path d="M 168.150076 212.31378 
L 166.558259 157.848096 
L 202.638244 168.36704 
L 203.455596 223.286564 
z
" clip-path="url(#p50708164c0)" style="fill: #0d324b"/>
    <path d="M 155.043866 223.401721 
L 153.136206 168.477466 
L 166.558259 157.848096 
L 168.150076 212.31378 
z
" clip-path="url(#p50708164c0)" style="fill: #1b699f"/>
    <path d="M 230.747336 156.217603 
L 267.511057 166.675088 
L 279.417821 156.110618 
L 242.9695 145.9172 
z
" clip-path="url(#p50708164c0)" style="fill: #185b8a"/>
    <path d="M 227.900875 212.173431 
L 227.596408 149.246835 
L 264.581941 159.688989 
L 263.952505 223.14266 
z
" clip-path="url(#p50708164c0)" style="fill: #0d324b"/>
    <path d="M 215.556556 223.257779 
L 214.926953 159.798613 
L 227.596408 149.246835 
L 227.900875 212.173431 
z
" clip-path="url(#p50708164c0)" style="fill: #1b699f"/>
    <path d="M 287.632441 212.033127 
L 289.696993 106.367398 
L 328.128986 116.424661 
L 324.429694 222.998803 
z
" clip-path="url(#p50708164c0)" style="fill: #0d324b"/>
    <path d="M 276.04952 223.113885 
L 277.635353 116.530267 
L 289.696993 106.367398 
L 287.632441 212.033127 
z
" clip-path="url(#p50708164c0)" style="fill: #1b699f"/>
    <path d="M 261.150019 237.367436 
L 273.107625 225.928238 
L 310.31332 237.248608 
L 298.687714 248.984101 
z
" clip-path="url(#p50708164c0)" style="fill: #113f60"/>
    <path d="M 199.677569 237.516016 
L 212.421269 226.073051 
L 248.857158 237.397148 
L 236.425256 249.136554 
z
" clip-path="url(#p50708164c0)" style="fill: #113f60"/>
    <path d="M 138.184749 237.664644 
L 151.71506 226.217912 
L 187.380635 237.545737 
L 174.141898 249.289059 
z
" clip-path="url(#p50708164c0)" style="fill: #113f60"/>
    <path d="M 190.637035 234.657172 
L 203.455596 223.286564 
L 202.638244 168.36704 
L 189.516486 179.273569 
z
" clip-path="url(#p50708164c0)" style="fill: #0d324b"/>
    <path d="M 155.043866 223.401721 
L 190.637035 234.657172 
L 189.516486 179.273569 
L 153.136206 168.477466 
z
" clip-path="url(#p50708164c0)" style="fill: #1b699f"/>
    <path d="M 251.915106 234.509538 
L 263.952505 223.14266 
L 264.581941 159.688989 
L 252.235586 170.516811 
z
" clip-path="url(#p50708164c0)" style="fill: #0d324b"/>
    <path d="M 215.556556 223.257779 
L 251.915106 234.509538 
L 252.235586 170.516811 
L 214.926953 159.798613 
z
" clip-path="url(#p50708164c0)" style="fill: #1b699f"/>
    <path d="M 153.136206 168.477466 
L 189.516486 179.273569 
L 202.638244 168.36704 
L 166.558259 157.848096 
z
" clip-path="url(#p50708164c0)" style="fill: #185b8a"/>
    <path d="M 214.926953 159.798613 
L 252.235586 170.516811 
L 264.581941 159.688989 
L 227.596408 149.246835 
z
" clip-path="url(#p50708164c0)" style="fill: #185b8a"/>
    <path d="M 151.71506 226.217912 
L 148.820958 146.135639 
L 185.636187 156.7825 
L 187.380635 237.545737 
z
" clip-path="url(#p50708164c0)" style="fill: #0d324b"/>
    <path d="M 138.184749 237.664644 
L 134.801291 156.894307 
L 148.820958 146.135639 
L 151.71506 226.217912 
z
" clip-path="url(#p50708164c0)" style="fill: #1b699f"/>
    <path d="M 313.172946 234.361953 
L 324.429694 222.998803 
L 328.128986 116.424661 
L 316.423569 126.857997 
z
" clip-path="url(#p50708164c0)" style="fill: #0d324b"/>
    <path d="M 276.04952 223.113885 
L 313.172946 234.361953 
L 316.423569 126.857997 
L 277.635353 116.530267 
z
" clip-path="url(#p50708164c0)" style="fill: #1b699f"/>
    <path d="M 212.421269 226.073051 
L 211.23606 120.437064 
L 249.257037 130.84865 
L 248.857158 237.397148 
z
" clip-path="url(#p50708164c0)" style="fill: #0d324b"/>
    <path d="M 199.677569 237.516016 
L 197.916368 130.958 
L 211.23606 120.437064 
L 212.421269 226.073051 
z
" clip-path="url(#p50708164c0)" style="fill: #1b699f"/>
    <path d="M 273.107625 225.928238 
L 274.572987 118.877692 
L 313.454783 129.272573 
L 310.31332 237.248608 
z
" clip-path="url(#p50708164c0)" style="fill: #0d324b"/>
    <path d="M 261.150019 237.367436 
L 262.102686 129.381749 
L 274.572987 118.877692 
L 273.107625 225.928238 
z
" clip-path="url(#p50708164c0)" style="fill: #1b699f"/>
    <path d="M 245.761419 252.088883 
L 258.112188 240.273566 
L 295.733616 251.966122 
L 283.720721 264.092565 
z
" clip-path="url(#p50708164c0)" style="fill: #113f60"/>
    <path d="M 183.277241 252.24238 
L 196.440022 240.42311 
L 233.266266 252.119578 
L 220.420144 264.250131 
z
" clip-path="url(#p50708164c0)" style="fill: #113f60"/>
    <path d="M 258.112188 240.273566 
L 258.588001 177.489213 
L 297.203975 188.651634 
L 295.733616 251.966122 
z
" clip-path="url(#p50708164c0)" style="fill: #0d324b"/>
    <path d="M 245.761419 252.088883 
L 245.919182 188.768868 
L 258.588001 177.489213 
L 258.112188 240.273566 
z
" clip-path="url(#p50708164c0)" style="fill: #1b699f"/>
    <path d="M 174.141898 249.289059 
L 187.380635 237.545737 
L 185.636187 156.7825 
L 171.92694 167.829339 
z
" clip-path="url(#p50708164c0)" style="fill: #0d324b"/>
    <path d="M 138.184749 237.664644 
L 174.141898 249.289059 
L 171.92694 167.829339 
L 134.801291 156.894307 
z
" clip-path="url(#p50708164c0)" style="fill: #1b699f"/>
    <path d="M 242.62288 255.091354 
L 242.623622 254.468541 
L 280.678113 266.546882 
L 280.667389 267.174758 
z
" clip-path="url(#p50708164c0)" style="fill: #0d324b"/>
    <path d="M 229.859233 267.301649 
L 229.856638 266.673721 
L 242.623622 254.468541 
L 242.62288 255.091354 
z
" clip-path="url(#p50708164c0)" style="fill: #1b699f"/>
    <path d="M 277.635353 116.530267 
L 316.423569 126.857997 
L 328.128986 116.424661 
L 289.696993 106.367398 
z
" clip-path="url(#p50708164c0)" style="fill: #185b8a"/>
    <path d="M 236.425256 249.136554 
L 248.857158 237.397148 
L 249.257037 130.84865 
L 236.276905 141.65428 
z
" clip-path="url(#p50708164c0)" style="fill: #0d324b"/>
    <path d="M 199.677569 237.516016 
L 236.425256 249.136554 
L 236.276905 141.65428 
L 197.916368 130.958 
z
" clip-path="url(#p50708164c0)" style="fill: #1b699f"/>
    <path d="M 298.687714 248.984101 
L 310.31332 237.248608 
L 313.454783 129.272573 
L 301.347448 140.060982 
z
" clip-path="url(#p50708164c0)" style="fill: #0d324b"/>
    <path d="M 261.150019 237.367436 
L 298.687714 248.984101 
L 301.347448 140.060982 
L 262.102686 129.381749 
z
" clip-path="url(#p50708164c0)" style="fill: #1b699f"/>
    <path d="M 196.440022 240.42311 
L 194.781145 147.669033 
L 233.014369 158.567229 
L 233.266266 252.119578 
z
" clip-path="url(#p50708164c0)" style="fill: #0d324b"/>
    <path d="M 183.277241 252.24238 
L 181.08476 158.681708 
L 194.781145 147.669033 
L 196.440022 240.42311 
z
" clip-path="url(#p50708164c0)" style="fill: #1b699f"/>
    <path d="M 229.859233 267.301649 
L 242.62288 255.091354 
L 280.667389 267.174758 
L 268.247525 279.712017 
z
" clip-path="url(#p50708164c0)" style="fill: #113f60"/>
    <path d="M 229.856638 266.673721 
L 268.255094 279.078975 
L 280.678113 266.546882 
L 242.623622 254.468541 
z
" clip-path="url(#p50708164c0)" style="fill: #185b8a"/>
    <path d="M 134.801291 156.894307 
L 171.92694 167.829339 
L 185.636187 156.7825 
L 148.820958 146.135639 
z
" clip-path="url(#p50708164c0)" style="fill: #185b8a"/>
    <path d="M 283.720721 264.092565 
L 295.733616 251.966122 
L 297.203975 188.651634 
L 284.89131 200.236218 
z
" clip-path="url(#p50708164c0)" style="fill: #0d324b"/>
    <path d="M 245.761419 252.088883 
L 283.720721 264.092565 
L 284.89131 200.236218 
L 245.919182 188.768868 
z
" clip-path="url(#p50708164c0)" style="fill: #1b699f"/>
    <path d="M 268.247525 279.712017 
L 280.667389 267.174758 
L 280.678113 266.546882 
L 268.255094 279.078975 
z
" clip-path="url(#p50708164c0)" style="fill: #0d324b"/>
    <path d="M 229.859233 267.301649 
L 268.247525 279.712017 
L 268.255094 279.078975 
L 229.856638 266.673721 
z
" clip-path="url(#p50708164c0)" style="fill: #1b699f"/>
    <path d="M 245.919182 188.768868 
L 284.89131 200.236218 
L 297.203975 188.651634 
L 258.588001 177.489213 
z
" clip-path="url(#p50708164c0)" style="fill: #185b8a"/>
    <path d="M 220.420144 264.250131 
L 233.266266 252.119578 
L 233.014369 158.567229 
L 219.659257 169.881356 
z
" clip-path="url(#p50708164c0)" style="fill: #0d324b"/>
    <path d="M 183.277241 252.24238 
L 220.420144 264.250131 
L 219.659257 169.881356 
L 181.08476 158.681708 
z
" clip-path="url(#p50708164c0)" style="fill: #1b699f"/>
    <path d="M 197.916368 130.958 
L 236.276905 141.65428 
L 249.257037 130.84865 
L 211.23606 120.437064 
z
" clip-path="url(#p50708164c0)" style="fill: #185b8a"/>
    <path d="M 262.102686 129.381749 
L 301.347448 140.060982 
L 313.454783 129.272573 
L 274.572987 118.877692 
z
" clip-path="url(#p50708164c0)" style="fill: #185b8a"/>
    <path d="M 181.08476 158.681708 
L 219.659257 169.881356 
L 233.014369 158.567229 
L 194.781145 147.669033 
z
" clip-path="url(#p50708164c0)" style="fill: #185b8a"/>
   </g>
  </g>
 </g>
 <defs>
  <clipPath id="p50708164c0">
   <rect x="103.104" y="41.472" width="266.112" height="266.112"/>
  </clipPath>
 </defs>
</svg>
